<svg viewBox="0 0 32 30" fill="none" xmlns="http://www.w3.org/2000/svg">
  <path d="M15.895 0 2 7.544v15.4l10.74 5.966-.052-2.506-8.532-4.762V10.201l10.634 5.726v13.471l1.122.602 1.158-.6V15.926l10.617-5.728V21.64l-8.481 4.661v2.506L30 23.058V7.544L15.895 0Zm0 14.123L5.522 8.296l10.373-5.815 10.622 5.815-10.622 5.827Zm-7.997 5.651 2.078-1.128-.177-.294-2.076 1.127.175.294v.001Zm3.637-1.984 2.078-1.128-.176-.293-2.078 1.127.176.294Zm4.514-5.29v-2.27h-.356v2.27h.356Zm0-3.954V6.264h-.356v2.282h.356Zm0-3.8V2.464h-.356v2.28h.356Zm4.494 12.762-2.065-1.14-.178.294 2.064 1.14.178-.294h.001Zm3.598 1.985-2.079-1.141-.176.293 2.076 1.141.178-.294h.001Zm-19.915 2.28 2.064-1.129-.178-.293L4.05 21.48l.176.294Zm23.57-.299-2.062-1.14-.179.293 2.064 1.141.177-.293Z" fill="currentColor"/>
</svg>
