<svg viewBox="0 0 31 30" fill="none" xmlns="http://www.w3.org/2000/svg">
  <path fill-rule="evenodd" clip-rule="evenodd" d="M2 7.544 15.398 0 29 7.544v15.514l-10.407 5.751v-2.506l8.033-4.58-1.91-1.095.171-.293 1.882 1.079V10.2l-4.996 2.795c.023-.156.035-.314.035-.471v-2.048l3.833-2.18-10.093-5.73v2.18h-.344V2.593L5.397 8.296l3.54 2.062v2.191c0 .126.008.252.023.378L4.08 10.2v11.221l1.888-1.07.17.294-1.91 1.083 8.079 4.675.05 2.507L2 22.945V7.544Zm6.985 11.11a3.23 3.23 0 0 0-.045.415l-1.252.704-.17-.294 1.467-.826Zm5.348 6.02h2.198v4.724L15.415 30l-1.082-.601v-4.726Zm2.198-2.143h-2.198v-1.025h2.198v1.025Zm0-6.356-.37-.303 3.1-2.535c.12-.098.215-.222.279-.361.066-.144.1-.3.1-.458v-.809l-.948.54v.269l-.344.281h-.623l-2.327 1.324-2.271-1.323h-.76l-.314-.257v-.37l-.948-.552v.922c0 .159.035.316.1.458.065.14.16.263.28.362l1.072.87 2.027 1.64-.251.203v1.279l.566-.458v1.536c0 .136.05.266.139.362.088.096.209.15.335.15a.457.457 0 0 0 .335-.15c.09-.1.14-.228.139-.362v-1.53l.684.559v-1.288Zm-.983-5.936h-.344v-.007h.344v.007ZM21.8 19l1.378.785.17-.294-1.606-.915A3.2 3.2 0 0 1 21.8 19ZM15.548 7.07h-.344v-.806h.344v.806Z" fill="currentColor"/>
  <path d="M19.261 13.337c.12-.098.215-.221.279-.361.066-.144.1-.3.1-.458v-2.28c0-.271-.1-.531-.277-.724a.915.915 0 0 0-.67-.3h-6.64a.915.915 0 0 0-.67.3 1.068 1.068 0 0 0-.278.725v2.304c0 .159.035.316.1.458.065.14.16.264.28.362l1.072.87 2.027 1.64-3.1 2.51a.99.99 0 0 0-.278.36c-.067.145-.101.3-.101.459v2.304c0 .272.1.532.277.725.178.192.42.3.671.3h6.64a.915.915 0 0 0 .67-.3 1.07 1.07 0 0 0 .278-.725v-2.279a1.1 1.1 0 0 0-.101-.458 1.015 1.015 0 0 0-.279-.361l-3.1-2.536 3.1-2.535Zm-7.208-3.098h6.64v2.279l-.345.281h-5.98l-.315-.256V10.24Zm6.64 8.988v2.28h-6.64V19.2l2.845-2.304v1.536c0 .136.05.266.14.362.088.096.209.15.335.15a.457.457 0 0 0 .335-.15c.09-.1.14-.228.139-.362v-1.53l2.845 2.324Z" fill="currentColor"/>
  <path d="m14.465 17.802-1.978 1.602v1.674h5.772v-1.649l-1.979-1.616v.662a.96.96 0 0 1-.25.607v.001l-.002.002a.893.893 0 0 1-.655.289.893.893 0 0 1-.655-.289.958.958 0 0 1-.253-.652v-.631Zm-2.763 4.14c.1.107.228.16.351.16h6.64a.48.48 0 0 0 .35-.16l.006-.007h-7.352l.005.006Zm.785-9.6.036.029h5.669l.067-.055v-1.649h-5.772v1.674Zm-.434-2.7a.48.48 0 0 0-.35.162l-.006.006h7.352l-.006-.006a.48.48 0 0 0-.35-.161h-6.64Zm3.28 8.791c0 .026.006.047.015.06l.01.013a.04.04 0 0 0 .012.01h.005a.042.042 0 0 0 .012-.01.106.106 0 0 0 .026-.07v-2.443l3.713 3.032v2.8a.661.661 0 0 0 .081-.319v-2.278a.673.673 0 0 0-.062-.281v-.001a.586.586 0 0 0-.161-.209l-3.503-2.864 1.75-1.432 1.754-1.434a.585.585 0 0 0 .16-.208v-.001a.672.672 0 0 0 .062-.28v-2.28a.66.66 0 0 0-.081-.318v2.799l-.5.41-.121.1h-6.293l-.592-.484V9.92a.66.66 0 0 0-.082.319v2.303l.002.037a.68.68 0 0 0 .046.211l.014.033v.002c.038.08.093.152.162.208l1.07.87 2.437 1.97-3.51 2.84a.583.583 0 0 0-.158.207v.001a.672.672 0 0 0-.063.281v2.304c0 .116.03.226.082.319v-2.826l3.712-3.007v2.441Zm4.741-5.915c0 .22-.048.436-.14.635a1.444 1.444 0 0 1-.395.514h-.002l-2.696 2.205 2.697 2.205v.001c.17.14.305.315.396.514l.033.075c.07.178.107.368.107.56v2.28c0 .373-.137.738-.391 1.013a1.35 1.35 0 0 1-.99.44h-6.64a1.35 1.35 0 0 1-.99-.44 1.494 1.494 0 0 1-.392-1.014v-2.305l.003-.082c.01-.19.057-.378.137-.553a1.45 1.45 0 0 1 .396-.514h.001l.001-.002 2.69-2.178-1.616-1.307h-.001l-1.073-.87-.002-.003a1.444 1.444 0 0 1-.396-.514 1.522 1.522 0 0 1-.14-.634V10.24c0-.374.137-.74.392-1.014a1.35 1.35 0 0 1 .99-.44h6.64c.379 0 .734.164.99.44.254.275.391.64.391 1.014v2.28Z" fill="currentColor"/>
</svg>
