<svg viewBox="0 0 30 30" fill="none" xmlns="http://www.w3.org/2000/svg">
  <path fill-rule="evenodd" clip-rule="evenodd" d="M5 9.532 14.925 4 25 9.532V20.91l-7.709 4.218v-1.838l5.95-3.359-1.415-.802.127-.216 1.395.791V11.48l-3.702 2.05a2.33 2.33 0 0 0 .027-.346v-1.502l2.839-1.598-7.477-4.202V7.48h-.254V5.902l-7.265 4.182 2.623 1.512v1.607c0 .092.006.185.017.277l-3.616-2v8.229l1.398-.785.127.216-1.415.794 5.984 3.428.037 1.839L5 20.826V9.532Zm5.174 8.147a2.35 2.35 0 0 0-.033.305l-.928.516-.125-.216 1.086-.605Zm3.962 4.415h1.628v3.465l-.827.441-.801-.44v-3.466Zm1.628-1.572h-1.628v-.75h1.628v.75Zm0-4.66-.274-.222 2.296-1.86a.755.755 0 0 0 .206-.264.797.797 0 0 0 .075-.336v-.593l-.702.396v.197l-.255.206h-.462l-1.723.97-1.683-.97h-.563l-.232-.188v-.27l-.703-.406v.676a.8.8 0 0 0 .075.336.757.757 0 0 0 .206.265l.795.639 1.502 1.202-.186.149v.938l.419-.336v1.127c0 .1.036.195.102.265a.34.34 0 0 0 .249.11.34.34 0 0 0 .248-.11.389.389 0 0 0 .103-.265v-1.123l.507.41v-.944Zm-.729-4.354h-.254v-.005h.254v.005Zm4.632 6.426 1.02.575.127-.215-1.19-.671c.021.103.036.207.043.311Zm-4.632-8.748h-.254v-.592h.254v.592Z" fill="#000"/>
  <path d="M17.786 13.78a.745.745 0 0 0 .206-.264.797.797 0 0 0 .075-.336v-1.672c0-.199-.074-.39-.206-.53a.68.68 0 0 0-.496-.22h-4.918a.681.681 0 0 0-.497.22.78.78 0 0 0-.206.53v1.69a.8.8 0 0 0 .075.336.746.746 0 0 0 .206.265l.795.639 1.502 1.202-2.297 1.84a.745.745 0 0 0-.206.265.798.798 0 0 0-.075.336v1.69c0 .2.074.39.206.531.132.141.31.22.497.22h4.918a.68.68 0 0 0 .496-.22.78.78 0 0 0 .206-.53V18.1a.799.799 0 0 0-.075-.336.746.746 0 0 0-.206-.265l-2.296-1.86 2.296-1.858Zm-5.34-2.272h4.919v1.672l-.255.206h-4.43l-.233-.188v-1.69Zm4.919 6.592v1.671h-4.918v-1.69l2.108-1.69v1.127c0 .1.036.195.102.265a.34.34 0 0 0 .249.11.34.34 0 0 0 .248-.11.389.389 0 0 0 .103-.265v-1.123l2.108 1.705Z" fill="#000"/>
  <path d="m14.233 17.055-1.465 1.175v1.227h4.276v-1.209l-1.466-1.185v.486a.7.7 0 0 1-.185.444l-.001.002h-.001a.664.664 0 0 1-.97 0 .7.7 0 0 1-.188-.477v-.463Zm-2.046 3.035c.074.08.168.118.26.118h4.918a.357.357 0 0 0 .26-.118l.003-.004h-5.445l.004.004Zm.581-7.04.027.022h4.2l.049-.04v-1.21h-4.276v1.228Zm-.321-1.979a.357.357 0 0 0-.26.118l-.004.005h5.445c0-.002-.002-.003-.003-.005a.357.357 0 0 0-.26-.118h-4.918Zm2.429 6.447c0 .018.005.034.011.044l.007.009a.031.031 0 0 0 .01.007l.001.001h.003a.033.033 0 0 0 .008-.007.077.077 0 0 0 .02-.052v-1.792l2.75 2.224v2.053a.482.482 0 0 0 .06-.234v-1.67a.49.49 0 0 0-.046-.207.432.432 0 0 0-.12-.153l-2.594-2.1 1.296-1.05v-.001l1.3-1.052a.43.43 0 0 0 .118-.152v-.001a.49.49 0 0 0 .046-.205v-1.672a.481.481 0 0 0-.06-.233v2.052l-.371.301-.09.073h-4.66l-.44-.354v-2.072a.48.48 0 0 0-.06.233v1.69l.001.027a.49.49 0 0 0 .035.155l.01.023v.002a.43.43 0 0 0 .12.153l.793.637 1.805 1.445-2.6 2.083a.428.428 0 0 0-.117.152.489.489 0 0 0-.046.206v1.69a.48.48 0 0 0 .06.234v-2.073l2.75-2.205v1.79Zm3.512-4.338c0 .16-.035.32-.103.466a1.062 1.062 0 0 1-.293.376h-.001l-1.998 1.618 1.998 1.617c.126.102.226.231.294.377l.024.055c.052.13.08.27.08.41v1.672c0 .274-.102.542-.29.744-.19.202-.453.322-.734.322h-4.918c-.281 0-.544-.12-.734-.322a1.09 1.09 0 0 1-.29-.744v-1.69l.002-.06c.008-.14.042-.278.102-.406a1.06 1.06 0 0 1 .293-.377l.002-.001 1.993-1.597-1.198-.959-.796-.639-.001-.001a1.06 1.06 0 0 1-.294-.377 1.106 1.106 0 0 1-.103-.465v-1.69c0-.275.102-.542.29-.744.19-.202.453-.322.734-.322h4.918c.28 0 .544.12.733.322.189.202.29.47.29.743v1.672Z" fill="#000"/>
</svg>
