<svg xmlns="http://www.w3.org/2000/svg" viewBox="0 0 14844 5111">
  <path d="M4942 1200c1143.33 0 1143.33 0 1185 3.813l2.846.254c72.4 6.504 143.935 19.54 213.154 41.933l2.22.717c31.82 10.301 62.64 22.772 92.78 37.283l3.067 1.475c37.423 18.112 73.079 40.025 105.933 65.525l1.813 1.396c8.021 6.183 15.833 12.581 23.518 19.177a823.8 823.8 0 0 0 5.243 4.435c6.34 5.348 12.392 10.812 18.192 16.754 2.052 2.055 4.156 3.972 6.359 5.863 6.237 5.358 11.817 11.22 17.168 17.453 1.627 1.832 3.32 3.533 5.082 5.235 3.766 3.699 7.007 7.765 10.313 11.874 2.155 2.623 4.388 5.13 6.687 7.626 5.564 6.122 10.596 12.624 15.625 19.187l1.401 1.819c13.534 17.606 26.14 35.787 37.31 54.984a327.997 327.997 0 0 0 3.57 5.931c21.409 34.82 38.314 72.08 52.719 110.266l1.359 3.598c28.14 75.222 42.94 155.032 53.96 334.994-.007 2.962-.01 5.925-.012 8.887-.036 28.053-.34 55.982-3.057 83.926-.262 2.716-.509 5.433-.754 8.15-6.177 67.746-19.46 134.838-40.833 199.442-.645 1.95-1.287 3.9-1.928 5.852-27.59 83.491-69.526 163.568-124.735 232.151l-1.546 1.929c-10.215 12.727-20.674 25.2-31.786 37.157a286.234 286.234 0 0 0-5.845 6.598c-3.727 4.264-7.653 8.29-11.663 12.289l-2.2 2.202c-1.523 1.525-3.049 3.048-4.575 4.57a3869.371 3869.371 0 0 0-6.938 6.944l-4.474 4.471-2.062 2.068a229.005 229.005 0 0 1-12.168 11.267c-2.401 2.073-4.725 4.227-7.056 6.38-4.88 4.447-9.91 8.65-15.05 12.792a593.565 593.565 0 0 0-5.547 4.587A585.15 585.15 0 0 1 6496 2646l-2.208 1.622c-17.117 12.552-34.789 24.135-52.792 35.378l-2.673 1.688C6436 2686 6436 2686 6434 2686a220.354 220.354 0 0 0 10.923 20.261c4.127 6.783 8.133 13.635 12.14 20.489 5.616 9.6 11.258 19.186 16.937 28.75a5404.1 5404.1 0 0 1 16.688 28.313A8710.843 8710.843 0 0 0 6512 2820a9565.503 9565.503 0 0 1 22.598 38.375A8695.488 8695.488 0 0 0 6555 2893a9565.503 9565.503 0 0 1 22.598 38.375A8695.488 8695.488 0 0 0 6598 2966a9565.503 9565.503 0 0 1 22.598 38.375A8695.488 8695.488 0 0 0 6641 3039a9565.503 9565.503 0 0 1 22.598 38.375A8695.488 8695.488 0 0 0 6684 3112a9565.503 9565.503 0 0 1 22.598 38.375A8695.488 8695.488 0 0 0 6727 3185a9486.096 9486.096 0 0 1 22.602 38.382 6385.192 6385.192 0 0 0 15.45 26.238 3480.082 3480.082 0 0 1 9.003 15.306l1.064 1.82c.356.608.71 1.215 1.077 1.84l2.179 3.727 1.092 1.866a2230.141 2230.141 0 0 0 15.158 25.508c5.704 9.459 11.253 18.998 16.748 28.579 4.314 7.504 8.72 14.947 13.19 22.359 6.63 10.995 13.117 22.068 19.57 33.167a7245.593 7245.593 0 0 0 26.576 45.261l3.027 5.118a385897159.118 385897159.118 0 0 1 3.497 5.902c.957 1.585 1.934 3.16 3.012 4.665 3.487 5.03 4.474 8.68 4.356 14.74l.013 2.472a619.63 619.63 0 0 1-.046 8.134c-.002 1.952-.001 3.904.002 5.856.001 5.284-.028 10.569-.063 15.853-.031 5.528-.034 11.056-.04 16.584a9468.288 9468.288 0 0 1-.107 31.385c-.056 11.913-.083 23.826-.108 35.739-.053 24.5-.14 49-.252 73.499a132418.343 132418.343 0 0 1-169.559.385c-17.904.027-35.807.052-53.711.075-8.78.01-17.56.022-26.34.034l-2.647.004c-28.332.038-56.663.106-84.995.189a38178.037 38178.037 0 0 1-99.652.167l-2.451.002c-13.031.01-26.063.052-39.094.105a7775.35 7775.35 0 0 1-39.28.06c-7.784-.006-15.567.012-23.35.066-5.806.038-11.61.029-17.416.001a520.57 520.57 0 0 0-7.062.036c-3.191.036-6.377.017-9.569-.017l-2.796.072c-2.648-.063-4.608-.213-7.078-1.179-2.59-2.72-4.299-5.67-6-9l-1.684-2.892-1.324-2.499-1.53-2.865-1.587-2.994c-4.172-7.789-8.404-15.53-12.813-23.188a2127.54 2127.54 0 0 1-12.937-22.812 5316807081.469 5316807081.469 0 0 0-5.338-9.552c-2.948-5.276-5.898-10.55-8.85-15.823l-1.757-3.14a5966.728 5966.728 0 0 0-13.286-23.571c-4.58-8.096-9.124-16.21-13.664-24.328a4797.86 4797.86 0 0 0-11.73-20.836 5983.75 5983.75 0 0 1-15.27-27.164 4797.86 4797.86 0 0 0-11.73-20.836 5983.75 5983.75 0 0 1-15.27-27.164 4797.86 4797.86 0 0 0-11.73-20.836 5983.75 5983.75 0 0 1-15.27-27.164 4797.86 4797.86 0 0 0-11.73-20.836 5983.75 5983.75 0 0 1-15.27-27.164 4797.86 4797.86 0 0 0-11.73-20.836 5983.75 5983.75 0 0 1-15.27-27.164 4797.86 4797.86 0 0 0-11.73-20.836 5983.75 5983.75 0 0 1-15.27-27.164 4797.86 4797.86 0 0 0-11.73-20.836 5983.75 5983.75 0 0 1-15.27-27.164 4797.86 4797.86 0 0 0-11.73-20.836 5983.75 5983.75 0 0 1-15.27-27.164 4797.86 4797.86 0 0 0-11.73-20.836 5983.75 5983.75 0 0 1-15.27-27.164 4797.86 4797.86 0 0 0-11.73-20.836 5983.75 5983.75 0 0 1-15.27-27.164 4797.86 4797.86 0 0 0-11.73-20.836 5983.75 5983.75 0 0 1-15.27-27.164 4797.86 4797.86 0 0 0-11.73-20.836 5983.75 5983.75 0 0 1-15.27-27.164 4797.86 4797.86 0 0 0-11.73-20.836 5983.75 5983.75 0 0 1-15.27-27.164 4797.86 4797.86 0 0 0-11.73-20.836 5983.75 5983.75 0 0 1-15.27-27.164 5367.093 5367.093 0 0 0-13.333-23.668 4806.128 4806.128 0 0 1-13.706-24.422 1327.95 1327.95 0 0 0-8.742-15.422l-1.697-2.945a1472.749 1472.749 0 0 0-3.198-5.508l-1.421-2.46-1.254-2.153C5796 2756 5796 2756 5796 2754h-251v895h-603V1200Zm603 526v530l198.625.125 62.612.055c18.594.007 18.594.007 37.188.01 8.253.003 16.506.01 24.759.021 9.542.013 19.084.019 28.626.016 4.87-.001 9.74 0 14.61.011 26.808.058 53.526-.38 80.142-3.988l3.829-.51c58.424-8.15 116.454-28.595 153.609-76.74 6.363-8.617 11.908-17.578 17-27l.98-1.773c24.058-43.856 30.02-96.968 31.02-146.227l.066-2.89c1.336-66.523-6.808-142.882-52.066-195.11l-2.14-2.473A383.58 383.58 0 0 0 6137 1792l-2.195-2.395c-11.422-11.983-25.228-21.823-39.805-29.605l-2.41-1.288c-24.402-12.802-50.57-20.675-77.59-25.712l-3.119-.584c-32.283-5.87-64.818-6.874-97.535-6.764-5.051.013-10.103.008-15.154.006-9.746-.001-19.492.012-29.238.032-11.305.022-22.61.024-33.914.026-29.764.016-59.527.058-89.29.097L5545 1726ZM7171 1200h603v962l216-1 12-22a1541.56 1541.56 0 0 1 6.375-11.313l3.27-5.761 1.662-2.931c2.937-5.196 5.845-10.41 8.756-15.62a2654.672 2654.672 0 0 1 14.4-25.427c4.471-7.807 8.867-15.657 13.256-23.51 4.438-7.94 8.905-15.862 13.388-23.776 2.79-4.93 5.569-9.866 8.327-14.814 5.777-10.365 11.61-20.684 17.628-30.91 5.262-8.949 10.279-18.005 15.187-27.151 3.94-7.332 8.012-14.577 12.166-21.79 3.878-6.739 7.677-13.518 11.46-20.31 4.632-8.309 9.362-16.551 14.188-24.75 5.261-8.948 10.278-18.004 15.186-27.15 3.94-7.332 8.012-14.577 12.166-21.79 3.878-6.739 7.677-13.518 11.46-20.31 4.632-8.309 9.362-16.551 14.188-24.75 5.261-8.948 10.278-18.004 15.186-27.15 3.94-7.332 8.013-14.575 12.164-21.788 3.89-6.764 7.719-13.562 11.524-20.374 7.179-12.845 14.418-25.654 21.667-38.459a34021.361 34021.361 0 0 0 6.453-11.403c2.808-4.967 5.603-9.94 8.38-14.923 5.777-10.362 11.609-20.678 17.626-30.902 5.261-8.949 10.278-18.005 15.186-27.151 3.94-7.332 8.012-14.577 12.166-21.79 3.878-6.739 7.677-13.518 11.46-20.31 4.632-8.309 9.362-16.551 14.188-24.75 5.261-8.948 10.278-18.004 15.186-27.15 3.94-7.332 8.013-14.575 12.164-21.788 3.89-6.764 7.719-13.562 11.524-20.374 7.179-12.845 14.418-25.654 21.667-38.459a31854.323 31854.323 0 0 0 6.449-11.396c4.024-7.12 8.02-14.256 12.01-21.395a2660.91 2660.91 0 0 1 14.4-25.427c4.471-7.807 8.867-15.657 13.256-23.51 4.438-7.94 8.905-15.862 13.388-23.776 2.79-4.93 5.569-9.866 8.327-14.814 5.777-10.365 11.61-20.684 17.629-30.91 5.26-8.946 10.274-18 15.181-27.143 4.913-9.138 10.04-18.144 15.224-27.13 1.647-2.864 3.282-5.735 4.915-8.606l1.675-2.945 3.198-5.628 1.443-2.533 1.276-2.245C8531 1201 8531 1201 8532 1200c2.824-.099 5.623-.132 8.447-.123l2.73-.004c3.06-.002 6.119.002 9.178.007 2.2 0 4.399-.002 6.598-.003 6.075-.002 12.15.002 18.224.007 5.87.004 11.738.003 17.606.002 12.011-.001 24.022.002 36.032.008a88062.555 88062.555 0 0 0 49.188.012c26.598.002 53.196.01 79.795.019 25.845.009 51.69.016 77.535.02h2.412a2593800.661 2593800.661 0 0 0 72.854.013h2.27c50.043.01 100.087.025 150.131.042.305 25.827.533 51.653.674 77.482.066 11.994.157 23.988.307 35.982.13 10.463.213 20.926.242 31.39a1168.2 1168.2 0 0 0 .151 16.596c.722 43.467.722 43.467-12.818 59.621-2.387 2.959-4.135 6.153-5.982 9.472l-1.948 3.329-1.939 3.315a4824.709 4824.709 0 0 1-16.812 28.5 2407.847 2407.847 0 0 0-17.446 29.902 2021.634 2021.634 0 0 1-13.382 22.884 4696.815 4696.815 0 0 0-13.36 22.715 4884.759 4884.759 0 0 1-16.812 28.5 2407.847 2407.847 0 0 0-17.446 29.901 2021.634 2021.634 0 0 1-13.382 22.884 4696.815 4696.815 0 0 0-13.36 22.715 4884.759 4884.759 0 0 1-16.812 28.5 2407.847 2407.847 0 0 0-17.446 29.901 2021.634 2021.634 0 0 1-13.382 22.884 4696.815 4696.815 0 0 0-13.36 22.715 4884.759 4884.759 0 0 1-16.812 28.5 2407.847 2407.847 0 0 0-17.446 29.901 2021.634 2021.634 0 0 1-13.382 22.884 4696.815 4696.815 0 0 0-13.36 22.715 4884.759 4884.759 0 0 1-16.812 28.5 2407.847 2407.847 0 0 0-17.446 29.901 2021.634 2021.634 0 0 1-13.382 22.884 4696.815 4696.815 0 0 0-13.36 22.715 4884.759 4884.759 0 0 1-16.812 28.5 2407.847 2407.847 0 0 0-17.446 29.901 2021.634 2021.634 0 0 1-13.382 22.884 4696.815 4696.815 0 0 0-13.36 22.715 4884.759 4884.759 0 0 1-16.812 28.5 2407.847 2407.847 0 0 0-17.446 29.901 2021.634 2021.634 0 0 1-13.382 22.884 4696.815 4696.815 0 0 0-13.36 22.715 4884.759 4884.759 0 0 1-16.812 28.5 2407.847 2407.847 0 0 0-17.446 29.901 2021.634 2021.634 0 0 1-13.382 22.884 4696.815 4696.815 0 0 0-13.36 22.715 4884.759 4884.759 0 0 1-16.812 28.5 2407.847 2407.847 0 0 0-17.446 29.901 1858.346 1858.346 0 0 1-11.804 20.224l-1.54 2.612c-2.809 4.758-5.64 9.5-8.505 14.224-1.6 2.646-3.19 5.298-4.776 7.952-.78 1.3-1.567 2.595-2.358 3.888a525.57 525.57 0 0 0-3.282 5.452l-1.923 3.178c-1.45 3.364-1.486 4.479-.241 7.881a114.587 114.587 0 0 0 3.586 6.363l1.117 1.867c1.217 2.032 2.445 4.057 3.672 6.082.86 1.43 1.718 2.86 2.575 4.292a5608.15 5608.15 0 0 0 5.367 8.93c3.778 6.28 7.51 12.588 11.243 18.894a6012.072 6012.072 0 0 0 19.958 33.429c6.135 10.214 12.204 20.468 18.273 30.722 4.252 7.185 8.51 14.366 12.772 21.546l1.222 2.06a5530.328 5530.328 0 0 0 15.715 26.315 5727.014 5727.014 0 0 1 17.955 30.093c3.259 5.493 6.517 10.986 9.774 16.48a53230.81 53230.81 0 0 0 9.724 16.392 6096.038 6096.038 0 0 0 17.565 29.392c6.135 10.214 12.204 20.468 18.273 30.722 4.252 7.185 8.51 14.366 12.772 21.546l1.219 2.054c5.882 9.91 11.797 19.8 17.735 29.677 6.136 10.215 12.205 20.468 18.274 30.723 4.252 7.185 8.51 14.366 12.772 21.546l1.222 2.06a5530.328 5530.328 0 0 0 15.715 26.315 5727.014 5727.014 0 0 1 17.955 30.093c3.259 5.493 6.517 10.986 9.774 16.48a53230.81 53230.81 0 0 0 9.724 16.392 6096.038 6096.038 0 0 0 17.565 29.392c6.135 10.214 12.204 20.468 18.273 30.722 4.252 7.185 8.51 14.366 12.772 21.546l1.219 2.054c5.882 9.91 11.797 19.8 17.735 29.677 6.127 10.2 12.187 20.438 18.247 30.678a17875.37 17875.37 0 0 0 14.352 24.203c4.11 6.928 8.231 13.85 12.38 20.755a4026.119 4026.119 0 0 1 12.445 20.885c6.22 10.495 12.46 20.98 18.746 31.436 6.75 11.227 13.432 22.493 20.104 33.766 4.252 7.185 8.51 14.366 12.772 21.546l1.219 2.054c5.882 9.91 11.797 19.8 17.735 29.677 6.136 10.215 12.205 20.468 18.274 30.723 4.252 7.185 8.51 14.366 12.772 21.546l1.222 2.06a5530.328 5530.328 0 0 0 15.715 26.315 5727.014 5727.014 0 0 1 16.75 28.063l1.205 2.03c3.259 5.493 6.517 10.986 9.774 16.48a53230.81 53230.81 0 0 0 9.724 16.392 6096.038 6096.038 0 0 0 17.565 29.392c6.12 10.189 12.174 20.416 18.228 30.645a24045.907 24045.907 0 0 0 14.672 24.763l3.5 5.903 2.024 3.415c1.063 1.764 2.136 3.526 3.332 5.203 3.476 5.008 4.445 8.655 4.327 14.693l.013 2.47a619.63 619.63 0 0 1-.046 8.135c-.002 1.952-.001 3.904.002 5.856.001 5.284-.028 10.569-.063 15.853-.031 5.528-.034 11.056-.04 16.584a9468.288 9468.288 0 0 1-.107 31.385c-.056 11.913-.083 23.826-.108 35.739-.053 24.5-.14 49-.252 73.499a126142.746 126142.746 0 0 1-165.495.385c-17.475.027-34.95.052-52.425.075a326218.041 326218.041 0 0 0-28.292.038c-27.653.038-55.305.106-82.958.189a36369.401 36369.401 0 0 1-97.265.167l-2.392.002c-12.719.01-25.438.052-38.157.105-12.78.053-25.558.074-38.338.06a2838.13 2838.13 0 0 0-22.792.066c-5.666.038-11.332.029-16.998.001a495.83 495.83 0 0 0-6.892.036c-3.115.036-6.225.017-9.34-.017l-2.728.072c-2.602-.063-4.507-.214-6.928-1.179-2.573-2.726-4.293-5.68-6-9l-1.592-2.708-1.197-2.245-1.394-2.59-1.442-2.707c-3.96-7.34-7.973-14.641-12.125-21.875l-1.472-2.564a8387.574 8387.574 0 0 1-12.653-22.06l-1.026-1.795a3174.034 3174.034 0 0 1-16.089-28.51c-4.14-7.409-8.33-14.787-12.551-22.15a3218.733 3218.733 0 0 1-10.709-18.858 4259.24 4259.24 0 0 0-13.667-24.031 3067.347 3067.347 0 0 1-16.333-28.845c-6.178-11.062-12.447-22.07-18.75-33.062-2.627-4.582-5.252-9.165-7.875-13.75l-1.027-1.794a3211.093 3211.093 0 0 1-16.094-28.52c-5.599-10.019-11.295-19.98-17.004-29.936-2.627-4.582-5.252-9.166-7.875-13.75l-1.029-1.797c-5.379-9.402-10.679-18.846-15.951-28.308-3.922-7.017-7.945-13.967-12.02-20.895-5.554-9.445-10.882-19.002-16.144-28.61a1026.932 1026.932 0 0 0-15.762-27.683c-5.021-8.55-9.826-17.214-14.616-25.895a936.019 936.019 0 0 0-12.54-21.937c-5.214-8.858-10.244-17.802-15.188-26.813a1833.004 1833.004 0 0 0-18.259-32.502 7950.678 7950.678 0 0 1-9.491-16.56l-1.027-1.795a3209.812 3209.812 0 0 1-16.094-28.52c-5.599-10.018-11.295-19.98-17.004-29.935a18794.994 18794.994 0 0 1-8.902-15.544 3211.093 3211.093 0 0 1-16.094-28.52c-5.599-10.019-11.295-19.98-17.004-29.936-2.627-4.582-5.252-9.166-7.875-13.75l-1.029-1.797c-5.379-9.402-10.679-18.846-15.951-28.308-3.922-7.017-7.945-13.967-12.02-20.895-5.554-9.445-10.882-19.002-16.144-28.61a1026.932 1026.932 0 0 0-15.762-27.683c-5.021-8.55-9.826-17.214-14.616-25.895a935.517 935.517 0 0 0-12.54-21.937c-5.536-9.402-10.842-18.918-16.082-28.486a1026.953 1026.953 0 0 0-15.762-27.682c-4.938-8.409-9.686-16.916-14.368-25.47-6.4-11.634-13.15-23.001-19.851-34.487l-226-1v962h-603V1200ZM3275 1200h593c16.012 43.462 16.012 43.462 23.486 64.247a21432.351 21432.351 0 0 0 5.61 15.586l.72 1.996 2.13 5.919a23147.985 23147.985 0 0 0 14.941 41.36l3.072 8.489c2.378 6.57 4.755 13.14 7.13 19.712 7.8 21.565 15.603 43.129 23.411 64.691 8.485 23.432 16.964 46.866 25.44 70.302l9.493 26.25 5.317 14.698 2.125 5.875 4.25 11.75a381870982.604 381870982.604 0 0 0 17.96 49.655c8.134 22.492 16.272 44.982 24.415 67.47 8.485 23.432 16.964 46.866 25.44 70.302l9.493 26.25 5.317 14.698 2.125 5.875 4.25 11.75a381870982.604 381870982.604 0 0 0 17.96 49.655c8.134 22.492 16.272 44.982 24.415 67.47 8.485 23.432 16.964 46.866 25.44 70.302l9.493 26.25 5.317 14.698 2.125 5.875 21.25 58.75a381874415.575 381874415.575 0 0 0 17.96 49.655c8.134 22.492 16.272 44.982 24.415 67.47 8.485 23.432 16.964 46.866 25.44 70.302l9.493 26.25 5.317 14.698 2.125 5.875 4.25 11.75a381874415.575 381874415.575 0 0 0 17.96 49.655c8.134 22.492 16.272 44.982 24.415 67.47 8.485 23.432 16.964 46.866 25.44 70.302l9.493 26.25 5.317 14.698 2.125 5.875 4.25 11.75a381874415.575 381874415.575 0 0 0 17.96 49.655c8.134 22.492 16.272 44.982 24.415 67.47 8.485 23.432 16.964 46.866 25.44 70.302l9.493 26.25 5.317 14.698 2.125 5.875 4.25 11.75a381874415.575 381874415.575 0 0 0 17.96 49.655c8.134 22.492 16.272 44.982 24.415 67.47 8.485 23.432 16.964 46.866 25.44 70.302l9.493 26.25 5.317 14.698 2.125 5.875 4.25 11.75 1.063 2.938a7980953.596 7980953.596 0 0 1 16.897 46.717c8.134 22.492 16.272 44.982 24.415 67.47 8.485 23.432 16.964 46.866 25.44 70.302l9.493 26.25 5.317 14.698 2.125 5.875 4.25 11.75 1.062 2.937a1996932.372 1996932.372 0 0 1 17.024 47.072 153962.889 153962.889 0 0 0 6.29 17.401c7.798 21.585 15.656 43.147 23.499 64.715v197h-565c-10.7-32.634-21.38-65.242-31.809-97.957-5.028-15.736-10.208-31.423-15.373-47.115a6165.769 6165.769 0 0 1-18.767-57.91c-5.965-18.734-12.087-37.416-18.234-56.092-5.997-18.221-11.939-36.458-17.755-54.738-6.236-19.602-12.627-39.15-19.062-58.688-6.754-20.508-13.448-41.033-19.992-61.61-6.694-21.04-13.582-42.016-20.495-62.986l-2.659-8.073c-.61-1.852-1.222-3.704-1.834-5.556l-1.12-3.399-.97-2.941c-1.043-3.291-1.981-6.615-2.93-9.935l-776-1-2 9a251.054 251.054 0 0 1-2.429 7.72l-.719 2.186c-.786 2.39-1.579 4.777-2.372 7.164l-1.703 5.166c-1.537 4.659-3.08 9.316-4.623 13.973-1.297 3.914-2.59 7.83-3.884 11.745a24460.593 24460.593 0 0 1-21.153 63.714l-.968 2.903c-3.069 9.204-6.14 18.408-9.218 27.61-5.968 17.837-11.882 35.69-17.685 53.58a5941.175 5941.175 0 0 1-16.885 51.215c-2.994 8.969-5.993 17.936-8.991 26.904-2.615 7.82-5.228 15.642-7.839 23.464l-1.11 3.325c-4.868 14.59-9.678 29.2-14.421 43.831a5721.049 5721.049 0 0 1-15.531 47.156l-1.11 3.323c-2.993 8.968-5.991 17.934-8.99 26.9-2.614 7.822-5.227 15.643-7.838 23.465l-1.094 3.277a5615.33 5615.33 0 0 0-17.174 52.323l-.833 2.573a2438.45 2438.45 0 0 0-1.516 4.7A168.73 168.73 0 0 1 2997 3649h-533c0-198.763 0-198.763 29.881-281.433a27905.272 27905.272 0 0 0 5.403-14.962l.7-1.94 2.062-5.712a37524.186 37524.186 0 0 0 15.416-42.787 365247.572 365247.572 0 0 0 15.288-42.479l1.107-3.074c6.608-18.36 13.228-36.714 19.849-55.07 6.52-18.074 13.036-36.15 19.544-54.23l1.108-3.077a361025.844 361025.844 0 0 0 16.392-45.548l1.107-3.075c6.844-19.015 13.7-38.025 20.558-57.035 6.201-17.19 12.397-34.383 18.585-51.578 6.423-17.85 12.856-35.695 19.293-53.539 6.991-19.38 13.98-38.763 20.957-58.148l1.108-3.077a361025.844 361025.844 0 0 0 16.392-45.548l1.107-3.075c6.608-18.36 13.228-36.714 19.849-55.07 6.52-18.074 13.036-36.15 19.544-54.23l1.108-3.077a361025.844 361025.844 0 0 0 16.392-45.548l1.107-3.075c6.608-18.36 13.228-36.714 19.849-55.07 6.52-18.074 13.036-36.15 19.544-54.23l1.108-3.077a361025.844 361025.844 0 0 0 16.392-45.548l1.107-3.075c6.608-18.36 13.228-36.714 19.849-55.07 6.52-18.074 13.036-36.15 19.544-54.23l1.108-3.077a361025.844 361025.844 0 0 0 16.392-45.548l1.107-3.075c6.608-18.36 13.228-36.714 19.849-55.07 6.52-18.074 13.036-36.15 19.544-54.23l1.108-3.077a361025.844 361025.844 0 0 0 16.392-45.548l1.107-3.075c6.608-18.36 13.228-36.714 19.849-55.07 6.52-18.074 13.036-36.15 19.544-54.23l1.108-3.077a361025.844 361025.844 0 0 0 16.392-45.548l1.107-3.075c6.844-19.015 13.7-38.025 20.558-57.035 6.201-17.19 12.397-34.383 18.585-51.578 6.423-17.85 12.856-35.695 19.293-53.539 6.991-19.38 13.98-38.763 20.957-58.149l1.108-3.076a361025.844 361025.844 0 0 0 16.392-45.549l1.107-3.074c6.608-18.36 13.228-36.714 19.849-55.07 6.52-18.074 13.036-36.15 19.544-54.23l1.108-3.077a361025.844 361025.844 0 0 0 16.392-45.549l1.107-3.074c6.608-18.36 13.228-36.714 19.849-55.07 6.52-18.074 13.036-36.15 19.544-54.23l1.108-3.077a361025.844 361025.844 0 0 0 16.392-45.549l1.107-3.074c6.608-18.36 13.228-36.714 19.849-55.07a84339.899 84339.899 0 0 0 38.501-106.947c7.502-20.901 15.163-41.74 22.793-62.596Zm287 752-.59 1.774a34715.68 34715.68 0 0 1-6.331 19.045c-.778 2.339-1.556 4.678-2.332 7.017-3.833 11.54-7.678 23.075-11.627 34.577l-.767 2.235-.79 2.3c-7.168 20.886-14.18 41.821-21.157 62.77l-.785 2.359c-4.043 12.14-8.082 24.281-12.121 36.423a113260.143 113260.143 0 0 1-13.697 41.156c-6.126 18.395-12.28 36.78-18.584 55.115-6.05 17.611-11.93 35.28-17.813 52.948l-.788 2.366c-4.042 12.138-8.08 24.276-12.118 36.415-4.3 12.928-8.601 25.855-12.906 38.781l-.791 2.375c-6.126 18.395-12.28 36.78-18.584 55.115-6.05 17.611-11.93 35.28-17.813 52.948l-.788 2.366c-4.042 12.138-8.08 24.276-12.118 36.415a115140.031 115140.031 0 0 1-14.462 43.456c-6.644 19.957-13.33 39.897-20.22 59.77l-.786 2.278c-.672 1.945-1.347 3.888-2.022 5.831-1.16 3.432-1.16 3.432-2.01 8.165h439c-7.462-23.534-14.926-47.047-22.669-70.487-2.05-6.214-4.094-12.43-6.136-18.646l-.681-2.074a4336.018 4336.018 0 0 1-12.452-38.606c-6.235-19.602-12.627-39.15-19.062-58.687-6.76-20.523-13.455-41.062-20.006-61.653-5.724-17.984-11.593-35.92-17.494-53.847-6.225-18.913-12.401-37.838-18.438-56.813-6.236-19.601-12.627-39.15-19.062-58.687-6.76-20.523-13.455-41.062-20.006-61.653-5.724-17.984-11.593-35.92-17.494-53.847-6.369-19.35-12.687-38.716-18.875-58.125l-1.918-6.01-.95-2.973c-1.585-4.964-3.17-9.928-4.757-14.892l-1.04-3.253a6772.64 6772.64 0 0 0-6.33-19.696c-.665-2.06-1.327-4.122-1.986-6.184-.903-2.824-1.815-5.644-2.73-8.465l-.809-2.551c-.644-1.97-1.367-3.914-2.105-5.851l-2-1ZM10199 1200h578c4.5 11.251 4.5 11.251 6.435 17.062l.644 1.926c.693 2.075 1.381 4.15 2.07 6.227l1.48 4.443c1.314 3.942 2.624 7.886 3.932 11.83l2.461 7.402c6.314 18.976 12.596 37.962 18.748 56.991 5.955 18.413 12.098 36.764 18.23 55.119 12.793 38.298 12.793 38.298 18.938 57.313 6.389 19.773 12.979 39.478 19.562 59.187 6.847 20.498 13.685 40.997 20.33 61.562 5.934 18.353 12.058 36.643 18.17 54.938 12.794 38.298 12.794 38.298 18.938 57.313 6.389 19.773 12.979 39.478 19.562 59.187 6.847 20.498 13.685 40.997 20.33 61.562 5.934 18.353 12.058 36.643 18.17 54.938 12.794 38.298 12.794 38.298 18.938 57.313 6.389 19.773 12.979 39.478 19.562 59.187 6.847 20.498 13.685 40.997 20.33 61.562 5.934 18.353 12.058 36.643 18.17 54.938 12.794 38.298 12.794 38.298 18.938 57.313 6.389 19.773 12.979 39.478 19.562 59.187 6.824 20.43 13.64 40.862 20.262 61.36 6.39 19.76 12.996 39.45 19.576 59.148 6.567 19.662 13.118 39.328 19.492 59.054 5.934 18.353 12.058 36.643 18.17 54.938 12.794 38.298 12.794 38.298 18.938 57.313 6.389 19.773 12.979 39.478 19.562 59.187 6.847 20.498 13.685 40.997 20.33 61.562 5.934 18.353 12.058 36.643 18.17 54.938 6.638 19.872 13.262 39.746 19.703 59.682 4.027 12.452 8.136 24.876 12.277 37.29l.818 2.453c2.728 8.177 5.46 16.354 8.196 24.528 1.287 3.846 2.572 7.693 3.858 11.54l.76 2.276c4.643 13.901 9.176 27.837 13.663 41.788l.737 2.287c.455 1.411.909 2.823 1.361 4.236 1.137 3.53 1.137 3.53 2.627 6.92l.752-2.357a188027.385 188027.385 0 0 1 10.412-32.615 26654.595 26654.595 0 0 1 21.148-65.965 8917.365 8917.365 0 0 0 18.545-58.331c6.507-20.673 13.16-41.296 19.85-61.91a7228.807 7228.807 0 0 0 20.444-63.974c6.239-19.841 12.609-39.637 19.021-59.423a6936.265 6936.265 0 0 0 18.765-58.738c6.809-21.66 13.761-43.271 20.77-64.867a7226.748 7226.748 0 0 0 20.444-63.972c6.239-19.841 12.609-39.637 19.021-59.423a6936.265 6936.265 0 0 0 18.765-58.738c6.809-21.66 13.761-43.272 20.771-64.868A6756.69 6756.69 0 0 0 11567 2061.5c6.558-20.87 13.247-41.693 20-62.5a7454.27 7454.27 0 0 0 21.151-66.152c6.239-19.841 12.609-39.637 19.021-59.423a6936.265 6936.265 0 0 0 18.765-58.737c6.809-21.661 13.761-43.272 20.77-64.868a7226.748 7226.748 0 0 0 20.444-63.972c6.239-19.841 12.609-39.637 19.021-59.423a6936.265 6936.265 0 0 0 18.765-58.737c6.809-21.662 13.761-43.273 20.771-64.87A6756.69 6756.69 0 0 0 11765 1442.5c6.558-20.87 13.247-41.693 20-62.5 6.774-20.87 13.483-41.756 20.063-62.688a8048.801 8048.801 0 0 1 19.377-60.754l2.013-6.234c1.266-3.922 2.535-7.844 3.805-11.765l1.093-3.385c3.81-11.75 7.742-23.454 11.649-35.174h571c0 203 0 203-13 239-3.394 9.435-6.788 18.87-10.177 28.306l-3.665 10.202-5.357 14.91-9.59 26.691-.715 1.99-3.569 9.93-6.458 17.97-3.594 10.001-1.438 4-3.593 10a26801713.865 26801713.865 0 0 0-15.078 41.957l-.718 1.996a292957.054 292957.054 0 0 1-16.798 46.735l-.727 2.022a60057.955 60057.955 0 0 0-20.335 56.665 32031.247 32031.247 0 0 1-17.938 49.938 87648.229 87648.229 0 0 0-20.688 57.5l-.739 2.056a66208.777 66208.777 0 0 0-21.806 60.773 31046.136 31046.136 0 0 1-18.133 50.456 29312.088 29312.088 0 0 0-17.384 48.402 32650.878 32650.878 0 0 1-19.615 54.594c-5.81 16.13-11.603 32.266-17.385 48.406-6.07 16.942-12.151 33.88-18.25 50.813a87224.025 87224.025 0 0 0-20.688 57.5l-.739 2.056a66208.777 66208.777 0 0 0-21.806 60.773 31046.136 31046.136 0 0 1-18.133 50.456 29384.154 29384.154 0 0 0-17.384 48.402c-6.07 16.942-12.151 33.88-18.25 50.813a87224.025 87224.025 0 0 0-20.688 57.5l-.739 2.056a66208.777 66208.777 0 0 0-21.806 60.773 31046.136 31046.136 0 0 1-18.133 50.456 29312.088 29312.088 0 0 0-17.384 48.402 32650.878 32650.878 0 0 1-19.615 54.594c-5.81 16.13-11.603 32.266-17.385 48.406-6.07 16.942-12.151 33.88-18.25 50.813a87224.025 87224.025 0 0 0-20.688 57.5l-.739 2.056a66208.777 66208.777 0 0 0-21.806 60.773 31046.136 31046.136 0 0 1-18.133 50.456 29384.154 29384.154 0 0 0-17.384 48.402c-6.07 16.942-12.151 33.88-18.25 50.813a87224.025 87224.025 0 0 0-20.688 57.5l-.739 2.056a66208.777 66208.777 0 0 0-21.806 60.773 31046.136 31046.136 0 0 1-18.133 50.456 29312.088 29312.088 0 0 0-17.384 48.402 32650.878 32650.878 0 0 1-19.615 54.594c-5.81 16.13-11.603 32.266-17.385 48.406-6.07 16.942-12.151 33.88-18.25 50.813a87224.025 87224.025 0 0 0-20.688 57.5l-.739 2.056a66784.761 66784.761 0 0 0-21.796 60.745A45217.304 45217.304 0 0 1 11616 3624l-9 25h-597l-22-61c-7.571-20.809-7.571-20.809-15.145-41.617-5.573-15.339-11.078-30.701-16.577-46.067a20520.083 20520.083 0 0 0-19.481-54.17l-5.595-15.503a135366.194 135366.194 0 0 1-17.947-49.753 96030.197 96030.197 0 0 1-13.128-36.417l-6.252-17.348-.691-1.918a17664.987 17664.987 0 0 0-20.371-56.207 11259.003 11259.003 0 0 1-21.535-59.684 20399.86 20399.86 0 0 0-18.09-50.316l-.694-1.923-6.283-17.407c-3.035-8.41-6.067-16.82-9.097-25.23l-6.239-17.315-.69-1.917a17645.136 17645.136 0 0 0-20.372-56.208 11259.003 11259.003 0 0 1-21.535-59.684 20520.083 20520.083 0 0 0-19.481-54.17l-5.595-15.503a135366.194 135366.194 0 0 1-17.947-49.753 96030.197 96030.197 0 0 1-13.128-36.417l-6.252-17.348-.691-1.918a17664.987 17664.987 0 0 0-20.371-56.207 11259.003 11259.003 0 0 1-21.535-59.684 20520.083 20520.083 0 0 0-19.481-54.17l-5.595-15.503a136372.511 136372.511 0 0 1-17.94-49.735 323450.402 323450.402 0 0 1-19.575-54.283l-.7-1.943a47029.373 47029.373 0 0 0-18.487-51.182 63768.294 63768.294 0 0 1-26.247-72.703c-3.257-9.034-6.514-18.068-9.773-27.102l-.685-1.901a476031.568 476031.568 0 0 0-10.287-28.52l-.687-1.905c-3.233-8.964-6.465-17.93-9.694-26.896l-6.252-17.348-.691-1.918a17664.987 17664.987 0 0 0-20.371-56.207 11259.003 11259.003 0 0 1-21.535-59.684 20520.083 20520.083 0 0 0-19.481-54.17l-5.595-15.503a135366.194 135366.194 0 0 1-17.947-49.753 96030.197 96030.197 0 0 1-13.128-36.417l-6.252-17.348-.691-1.918a17664.987 17664.987 0 0 0-20.371-56.207 11259.003 11259.003 0 0 1-21.535-59.684 20399.86 20399.86 0 0 0-18.09-50.316l-.694-1.923-6.283-17.407c-3.035-8.41-6.067-16.82-9.097-25.23l-6.239-17.315-.69-1.917a17645.136 17645.136 0 0 0-20.372-56.208 11259.003 11259.003 0 0 1-21.535-59.684 20520.083 20520.083 0 0 0-19.481-54.17l-5.595-15.503a134963.857 134963.857 0 0 1-17.936-49.722 72458.65 72458.65 0 0 1-17.616-48.877l-3.376-9.374c-8.009-22.254-16.148-44.458-24.274-66.67v-202ZM13240 902h750v3307h-750v-501h252V1404h-252V902ZM854 902h749v502h-251v2304h251v501H854V902ZM9334 1200h603v2449h-603V1200Z"/>
</svg>
