<svg xmlns="http://www.w3.org/2000/svg" viewBox="0 0 268 184" fill="none">
  <path d="M11.856.536a4 4 0 0 1 4 0l9.857 5.69a4 4 0 0 1 2 3.465v11.38a4 4 0 0 1-2 3.465l-9.857 5.69a4 4 0 0 1-4 0L2 24.537a4 4 0 0 1-2-3.464V9.69a4 4 0 0 1 2-3.464l9.856-5.69Z" fill="url(#cells_dark_svg__a)"/>
  <path d="M55.856 21.536a4 4 0 0 0-4 0L42 27.226a4 4 0 0 0-2 3.465v11.38a4 4 0 0 0 2 3.465l9.856 5.69a4 4 0 0 0 4 0l9.857-5.69a4 4 0 0 0 2-3.464V30.69a4 4 0 0 0-2-3.464l-9.857-5.691Z" fill="url(#cells_dark_svg__b)"/>
  <path d="M55.856 65.536a4 4 0 0 0-4 0L42 71.226a4 4 0 0 0-2 3.465v11.38a4 4 0 0 0 2 3.465l9.856 5.69a4 4 0 0 0 4 0l9.857-5.69a4 4 0 0 0 2-3.464V74.69a4 4 0 0 0-2-3.465l-9.857-5.69Z" fill="url(#cells_dark_svg__c)"/>
  <path d="M51.856 109.536a3.998 3.998 0 0 1 4 0l9.857 5.691a4 4 0 0 1 2 3.464v11.381a4 4 0 0 1-2 3.464l-9.857 5.691a4.003 4.003 0 0 1-4 0L42 133.536a4 4 0 0 1-2-3.464v-11.381a4 4 0 0 1 2-3.464l9.856-5.691Z" fill="url(#cells_dark_svg__d)"/>
  <path d="M55.856 153.536a3.998 3.998 0 0 0-4 0L42 159.227a4 4 0 0 0-2 3.464v11.381a4 4 0 0 0 2 3.464l9.856 5.691a4.003 4.003 0 0 0 4 0l9.857-5.691a4 4 0 0 0 2-3.464v-11.381a4 4 0 0 0-2-3.464l-9.857-5.691Z" fill="url(#cells_dark_svg__e)"/>
  <path d="M15.856 44.536a4 4 0 0 0-4 0L2 50.226a4 4 0 0 0-2 3.465v11.38a4 4 0 0 0 2 3.465l9.856 5.69a4 4 0 0 0 4 0l9.857-5.69a4 4 0 0 0 2-3.464V53.69a4 4 0 0 0-2-3.465l-9.857-5.69Z" fill="url(#cells_dark_svg__f)"/>
  <path d="M11.856 88.536a4 4 0 0 1 4 0l9.857 5.69a4 4 0 0 1 2 3.465v11.381a4 4 0 0 1-2 3.464l-9.857 5.691a4.003 4.003 0 0 1-4 0L2 112.536a4 4 0 0 1-2-3.464V97.691a4 4 0 0 1 2-3.465l9.856-5.69Z" fill="url(#cells_dark_svg__g)"/>
  <path d="M15.856 132.536a3.998 3.998 0 0 0-4 0L2 138.227a4 4 0 0 0-2 3.464v11.381a4 4 0 0 0 2 3.464l9.856 5.691a4.003 4.003 0 0 0 4 0l9.857-5.691a4 4 0 0 0 2-3.464v-11.381a4 4 0 0 0-2-3.464l-9.857-5.691Z" fill="url(#cells_dark_svg__h)"/>
  <path d="M91.856.536a4 4 0 0 1 4 0l9.857 5.69c1.237.715 2 2.036 2 3.465v11.38c0 1.43-.763 2.75-2 3.465l-9.857 5.69a4 4 0 0 1-4 0L82 24.537a4 4 0 0 1-2-3.464V9.69a4 4 0 0 1 2-3.464l9.856-5.69Z" fill="url(#cells_dark_svg__i)"/>
  <path d="M95.856 44.536a4 4 0 0 0-4 0L82 50.226a4 4 0 0 0-2 3.465v11.38a4 4 0 0 0 2 3.465l9.856 5.69a4 4 0 0 0 4 0l9.857-5.69a4.001 4.001 0 0 0 2-3.464V53.69c0-1.43-.763-2.75-2-3.465l-9.857-5.69Z" fill="url(#cells_dark_svg__j)"/>
  <path d="M91.856 88.536a4 4 0 0 1 4 0l9.857 5.69c1.237.715 2 2.036 2 3.465v11.381a4.002 4.002 0 0 1-2 3.464l-9.857 5.691a4.003 4.003 0 0 1-4 0L82 112.536a4 4 0 0 1-2-3.464V97.691a4 4 0 0 1 2-3.465l9.856-5.69Z" fill="url(#cells_dark_svg__k)"/>
  <path d="M95.856 132.536a3.998 3.998 0 0 0-4 0L82 138.227a4 4 0 0 0-2 3.464v11.381a4 4 0 0 0 2 3.464l9.856 5.691a4.003 4.003 0 0 0 4 0l9.857-5.691a4.002 4.002 0 0 0 2-3.464v-11.381a4 4 0 0 0-2-3.464l-9.857-5.691Z" fill="url(#cells_dark_svg__l)"/>
  <path d="M131.856 21.536a4 4 0 0 1 4 0l9.857 5.69c1.237.715 2 2.036 2 3.465v11.38c0 1.43-.763 2.75-2 3.465l-9.857 5.69a4 4 0 0 1-4 0L122 45.537a4 4 0 0 1-2-3.464V30.69a4 4 0 0 1 2-3.464l9.856-5.691Z" fill="url(#cells_dark_svg__m)"/>
  <path d="M135.856 65.536a4 4 0 0 0-4 0L122 71.226a4 4 0 0 0-2 3.465v11.38a4 4 0 0 0 2 3.465l9.856 5.69a4 4 0 0 0 4 0l9.857-5.69a4.001 4.001 0 0 0 2-3.464V74.69c0-1.43-.763-2.75-2-3.465l-9.857-5.69Z" fill="url(#cells_dark_svg__n)"/>
  <path d="M131.856 109.536a3.998 3.998 0 0 1 4 0l9.857 5.691a4 4 0 0 1 2 3.464v11.381a4.002 4.002 0 0 1-2 3.464l-9.857 5.691a4.003 4.003 0 0 1-4 0L122 133.536a4 4 0 0 1-2-3.464v-11.381c0-1.429.762-2.75 2-3.464l9.856-5.691Z" fill="url(#cells_dark_svg__o)"/>
  <path d="M135.856 153.536a3.998 3.998 0 0 0-4 0L122 159.227a3.998 3.998 0 0 0-2 3.464v11.381a4 4 0 0 0 2 3.464l9.856 5.691a4.003 4.003 0 0 0 4 0l9.857-5.691a4.002 4.002 0 0 0 2-3.464v-11.381a4 4 0 0 0-2-3.464l-9.857-5.691Z" fill="url(#cells_dark_svg__p)"/>
  <path d="M171.856.536a4 4 0 0 1 4 0l9.857 5.69c1.237.715 2 2.036 2 3.465v11.38c0 1.43-.763 2.75-2 3.465l-9.857 5.69a4 4 0 0 1-4 0L162 24.537a4 4 0 0 1-2-3.464V9.69a4 4 0 0 1 2-3.464l9.856-5.691Z" fill="url(#cells_dark_svg__q)"/>
  <path d="M175.856 44.536a4 4 0 0 0-4 0L162 50.226a4 4 0 0 0-2 3.465v11.38a4 4 0 0 0 2 3.465l9.856 5.69a4 4 0 0 0 4 0l9.857-5.69a4.001 4.001 0 0 0 2-3.464V53.69c0-1.43-.763-2.75-2-3.465l-9.857-5.69Z" fill="url(#cells_dark_svg__r)"/>
  <path d="M171.856 88.536a4 4 0 0 1 4 0l9.857 5.69c1.237.715 2 2.036 2 3.465v11.381a4.002 4.002 0 0 1-2 3.464l-9.857 5.691a4.003 4.003 0 0 1-4 0L162 112.536a4 4 0 0 1-2-3.464V97.691a4 4 0 0 1 2-3.465l9.856-5.69Z" fill="url(#cells_dark_svg__s)"/>
  <path d="M175.856 132.536a3.998 3.998 0 0 0-4 0L162 138.227a3.998 3.998 0 0 0-2 3.464v11.381a4 4 0 0 0 2 3.464l9.856 5.691a4.003 4.003 0 0 0 4 0l9.857-5.691a4.002 4.002 0 0 0 2-3.464v-11.381a4 4 0 0 0-2-3.464l-9.857-5.691Z" fill="url(#cells_dark_svg__t)"/>
  <path d="M211.856 21.536a4 4 0 0 1 4 0l9.857 5.69c1.237.715 2 2.036 2 3.465v11.38c0 1.43-.763 2.75-2 3.465l-9.857 5.69a4 4 0 0 1-4 0L202 45.537a4 4 0 0 1-2-3.464V30.69a4 4 0 0 1 2-3.464l9.856-5.691Z" fill="url(#cells_dark_svg__u)"/>
  <path d="M215.856 65.536a4 4 0 0 0-4 0L202 71.226a4 4 0 0 0-2 3.465v11.38a4 4 0 0 0 2 3.465l9.856 5.69a4 4 0 0 0 4 0l9.857-5.69a4.001 4.001 0 0 0 2-3.464V74.69c0-1.43-.763-2.75-2-3.465l-9.857-5.69Z" fill="url(#cells_dark_svg__v)"/>
  <path d="M211.856 109.536a3.998 3.998 0 0 1 4 0l9.857 5.691a4 4 0 0 1 2 3.464v11.381a4.002 4.002 0 0 1-2 3.464l-9.857 5.691a4.003 4.003 0 0 1-4 0L202 133.536a4 4 0 0 1-2-3.464v-11.381c0-1.429.762-2.75 2-3.464l9.856-5.691Z" fill="url(#cells_dark_svg__w)"/>
  <path d="M215.856 153.536a3.998 3.998 0 0 0-4 0L202 159.227a3.998 3.998 0 0 0-2 3.464v11.381a4 4 0 0 0 2 3.464l9.856 5.691a4.003 4.003 0 0 0 4 0l9.857-5.691a4.002 4.002 0 0 0 2-3.464v-11.381a4 4 0 0 0-2-3.464l-9.857-5.691Z" fill="url(#cells_dark_svg__x)"/>
  <path d="M251.856.536a4 4 0 0 1 4 0l9.857 5.69c1.237.715 2 2.036 2 3.465v11.38c0 1.43-.763 2.75-2 3.465l-9.857 5.69a4 4 0 0 1-4 0L242 24.537a4 4 0 0 1-2-3.464V9.69a4 4 0 0 1 2-3.464l9.856-5.691Z" fill="url(#cells_dark_svg__y)"/>
  <path d="M255.856 44.536a4 4 0 0 0-4 0L242 50.226a4 4 0 0 0-2 3.465v11.38a4 4 0 0 0 2 3.465l9.856 5.69a4 4 0 0 0 4 0l9.857-5.69a4.001 4.001 0 0 0 2-3.464V53.69c0-1.43-.763-2.75-2-3.465l-9.857-5.69Z" fill="url(#cells_dark_svg__z)"/>
  <path d="M251.856 88.536a4 4 0 0 1 4 0l9.857 5.69c1.237.715 2 2.036 2 3.465v11.381a4.002 4.002 0 0 1-2 3.464l-9.857 5.691a4.003 4.003 0 0 1-4 0L242 112.536a4 4 0 0 1-2-3.464V97.691a4 4 0 0 1 2-3.465l9.856-5.69Z" fill="url(#cells_dark_svg__A)"/>
  <path d="M255.856 132.536a3.998 3.998 0 0 0-4 0L242 138.227a3.998 3.998 0 0 0-2 3.464v11.381a4 4 0 0 0 2 3.464l9.856 5.691a4.003 4.003 0 0 0 4 0l9.857-5.691a4.002 4.002 0 0 0 2-3.464v-11.381a4 4 0 0 0-2-3.464l-9.857-5.691Z" fill="url(#cells_dark_svg__B)"/>
  <defs>
    <radialGradient id="cells_dark_svg__a" cx="0" cy="0" r="1" gradientUnits="userSpaceOnUse" gradientTransform="matrix(0 112.553 -148.453 0 130.045 91.843)">
      <stop stop-color="#C37300"/>
      <stop offset="1" stop-color="#E1910E"/>
    </radialGradient>
    <radialGradient id="cells_dark_svg__b" cx="0" cy="0" r="1" gradientUnits="userSpaceOnUse" gradientTransform="matrix(0 112.553 -148.453 0 130.045 91.843)">
      <stop stop-color="#C37300"/>
      <stop offset="1" stop-color="#E1910E"/>
    </radialGradient>
    <radialGradient id="cells_dark_svg__c" cx="0" cy="0" r="1" gradientUnits="userSpaceOnUse" gradientTransform="matrix(0 112.553 -148.453 0 130.045 91.843)">
      <stop stop-color="#C37300"/>
      <stop offset="1" stop-color="#E1910E"/>
    </radialGradient>
    <radialGradient id="cells_dark_svg__d" cx="0" cy="0" r="1" gradientUnits="userSpaceOnUse" gradientTransform="matrix(0 112.553 -148.453 0 130.045 91.843)">
      <stop stop-color="#C37300"/>
      <stop offset="1" stop-color="#E1910E"/>
    </radialGradient>
    <radialGradient id="cells_dark_svg__e" cx="0" cy="0" r="1" gradientUnits="userSpaceOnUse" gradientTransform="matrix(0 112.553 -148.453 0 130.045 91.843)">
      <stop stop-color="#C37300"/>
      <stop offset="1" stop-color="#E1910E"/>
    </radialGradient>
    <radialGradient id="cells_dark_svg__f" cx="0" cy="0" r="1" gradientUnits="userSpaceOnUse" gradientTransform="matrix(0 112.553 -148.453 0 130.045 91.843)">
      <stop stop-color="#C37300"/>
      <stop offset="1" stop-color="#E1910E"/>
    </radialGradient>
    <radialGradient id="cells_dark_svg__g" cx="0" cy="0" r="1" gradientUnits="userSpaceOnUse" gradientTransform="matrix(0 112.553 -148.453 0 130.045 91.843)">
      <stop stop-color="#C37300"/>
      <stop offset="1" stop-color="#E1910E"/>
    </radialGradient>
    <radialGradient id="cells_dark_svg__h" cx="0" cy="0" r="1" gradientUnits="userSpaceOnUse" gradientTransform="matrix(0 112.553 -148.453 0 130.045 91.843)">
      <stop stop-color="#C37300"/>
      <stop offset="1" stop-color="#E1910E"/>
    </radialGradient>
    <radialGradient id="cells_dark_svg__i" cx="0" cy="0" r="1" gradientUnits="userSpaceOnUse" gradientTransform="matrix(0 112.553 -148.453 0 130.045 91.843)">
      <stop stop-color="#C37300"/>
      <stop offset="1" stop-color="#E1910E"/>
    </radialGradient>
    <radialGradient id="cells_dark_svg__j" cx="0" cy="0" r="1" gradientUnits="userSpaceOnUse" gradientTransform="matrix(0 112.553 -148.453 0 130.045 91.843)">
      <stop stop-color="#C37300"/>
      <stop offset="1" stop-color="#E1910E"/>
    </radialGradient>
    <radialGradient id="cells_dark_svg__k" cx="0" cy="0" r="1" gradientUnits="userSpaceOnUse" gradientTransform="matrix(0 112.553 -148.453 0 130.045 91.843)">
      <stop stop-color="#C37300"/>
      <stop offset="1" stop-color="#E1910E"/>
    </radialGradient>
    <radialGradient id="cells_dark_svg__l" cx="0" cy="0" r="1" gradientUnits="userSpaceOnUse" gradientTransform="matrix(0 112.553 -148.453 0 130.045 91.843)">
      <stop stop-color="#C37300"/>
      <stop offset="1" stop-color="#E1910E"/>
    </radialGradient>
    <radialGradient id="cells_dark_svg__m" cx="0" cy="0" r="1" gradientUnits="userSpaceOnUse" gradientTransform="matrix(0 112.553 -148.453 0 130.045 91.843)">
      <stop stop-color="#C37300"/>
      <stop offset="1" stop-color="#E1910E"/>
    </radialGradient>
    <radialGradient id="cells_dark_svg__n" cx="0" cy="0" r="1" gradientUnits="userSpaceOnUse" gradientTransform="matrix(0 112.553 -148.453 0 130.045 91.843)">
      <stop stop-color="#C37300"/>
      <stop offset="1" stop-color="#E1910E"/>
    </radialGradient>
    <radialGradient id="cells_dark_svg__o" cx="0" cy="0" r="1" gradientUnits="userSpaceOnUse" gradientTransform="matrix(0 112.553 -148.453 0 130.045 91.843)">
      <stop stop-color="#C37300"/>
      <stop offset="1" stop-color="#E1910E"/>
    </radialGradient>
    <radialGradient id="cells_dark_svg__p" cx="0" cy="0" r="1" gradientUnits="userSpaceOnUse" gradientTransform="matrix(0 112.553 -148.453 0 130.045 91.843)">
      <stop stop-color="#C37300"/>
      <stop offset="1" stop-color="#E1910E"/>
    </radialGradient>
    <radialGradient id="cells_dark_svg__q" cx="0" cy="0" r="1" gradientUnits="userSpaceOnUse" gradientTransform="matrix(0 112.553 -148.453 0 130.045 91.843)">
      <stop stop-color="#C37300"/>
      <stop offset="1" stop-color="#E1910E"/>
    </radialGradient>
    <radialGradient id="cells_dark_svg__r" cx="0" cy="0" r="1" gradientUnits="userSpaceOnUse" gradientTransform="matrix(0 112.553 -148.453 0 130.045 91.843)">
      <stop stop-color="#C37300"/>
      <stop offset="1" stop-color="#E1910E"/>
    </radialGradient>
    <radialGradient id="cells_dark_svg__s" cx="0" cy="0" r="1" gradientUnits="userSpaceOnUse" gradientTransform="matrix(0 112.553 -148.453 0 130.045 91.843)">
      <stop stop-color="#C37300"/>
      <stop offset="1" stop-color="#E1910E"/>
    </radialGradient>
    <radialGradient id="cells_dark_svg__t" cx="0" cy="0" r="1" gradientUnits="userSpaceOnUse" gradientTransform="matrix(0 112.553 -148.453 0 130.045 91.843)">
      <stop stop-color="#C37300"/>
      <stop offset="1" stop-color="#E1910E"/>
    </radialGradient>
    <radialGradient id="cells_dark_svg__u" cx="0" cy="0" r="1" gradientUnits="userSpaceOnUse" gradientTransform="matrix(0 112.553 -148.453 0 130.045 91.843)">
      <stop stop-color="#C37300"/>
      <stop offset="1" stop-color="#E1910E"/>
    </radialGradient>
    <radialGradient id="cells_dark_svg__v" cx="0" cy="0" r="1" gradientUnits="userSpaceOnUse" gradientTransform="matrix(0 112.553 -148.453 0 130.045 91.843)">
      <stop stop-color="#C37300"/>
      <stop offset="1" stop-color="#E1910E"/>
    </radialGradient>
    <radialGradient id="cells_dark_svg__w" cx="0" cy="0" r="1" gradientUnits="userSpaceOnUse" gradientTransform="matrix(0 112.553 -148.453 0 130.045 91.843)">
      <stop stop-color="#C37300"/>
      <stop offset="1" stop-color="#E1910E"/>
    </radialGradient>
    <radialGradient id="cells_dark_svg__x" cx="0" cy="0" r="1" gradientUnits="userSpaceOnUse" gradientTransform="matrix(0 112.553 -148.453 0 130.045 91.843)">
      <stop stop-color="#C37300"/>
      <stop offset="1" stop-color="#E1910E"/>
    </radialGradient>
    <radialGradient id="cells_dark_svg__y" cx="0" cy="0" r="1" gradientUnits="userSpaceOnUse" gradientTransform="matrix(0 112.553 -148.453 0 130.045 91.843)">
      <stop stop-color="#C37300"/>
      <stop offset="1" stop-color="#E1910E"/>
    </radialGradient>
    <radialGradient id="cells_dark_svg__z" cx="0" cy="0" r="1" gradientUnits="userSpaceOnUse" gradientTransform="matrix(0 112.553 -148.453 0 130.045 91.843)">
      <stop stop-color="#C37300"/>
      <stop offset="1" stop-color="#E1910E"/>
    </radialGradient>
    <radialGradient id="cells_dark_svg__A" cx="0" cy="0" r="1" gradientUnits="userSpaceOnUse" gradientTransform="matrix(0 112.553 -148.453 0 130.045 91.843)">
      <stop stop-color="#C37300"/>
      <stop offset="1" stop-color="#E1910E"/>
    </radialGradient>
    <radialGradient id="cells_dark_svg__B" cx="0" cy="0" r="1" gradientUnits="userSpaceOnUse" gradientTransform="matrix(0 112.553 -148.453 0 130.045 91.843)">
      <stop stop-color="#C37300"/>
      <stop offset="1" stop-color="#E1910E"/>
    </radialGradient>
  </defs>
</svg>
