<svg viewBox="0 0 200 100" fill="none" xmlns="http://www.w3.org/2000/svg">
  <g clip-path="url(#a)">
    <path d="M64.708 17.785c-9.729 0-17.649 7.92-17.649 17.649 0 9.728 7.92 17.648 17.649 17.648 9.728 0 17.648-7.92 17.648-17.648 0-9.73-7.92-17.649-17.648-17.649Zm0 29.41c-6.483 0-11.763-5.279-11.763-11.761 0-6.483 5.28-11.763 11.763-11.763 6.482 0 11.762 5.28 11.762 11.763 0 6.482-5.28 11.762-11.762 11.762ZM94.118.128h5.887v52.065h-5.886V.127ZM200 18.665v33.527h-5.886v-27.65h-11.763v27.65h-5.886v-27.65h-11.762v27.65h-5.886V18.665H200ZM36.363 12.554l-8.507 8.497a17.578 17.578 0 0 0-10.218-3.276C7.91 17.775-.01 25.695-.01 35.424c0 8.731 6.375 15.996 14.705 17.394v6.385C6.365 60.61-.01 67.875-.01 76.597c0 9.729 7.92 17.649 17.648 17.649 9.73 0 17.649-7.92 17.649-17.649 0-8.731-6.375-15.996-14.706-17.394v-6.385c8.331-1.408 14.706-8.673 14.706-17.394 0-3.804-1.212-7.333-3.276-10.218l8.497-8.506-4.155-4.156.01.01ZM29.41 76.607c0 6.482-5.28 11.762-11.763 11.762-6.482 0-11.762-5.28-11.762-11.762 0-6.483 5.28-11.763 11.762-11.763 6.483 0 11.763 5.28 11.763 11.763ZM17.648 47.196c-6.482 0-11.762-5.28-11.762-11.762 0-6.483 5.28-11.763 11.762-11.763 6.483 0 11.763 5.28 11.763 11.763 0 6.482-5.28 11.762-11.763 11.762ZM129.71 17.785c-5.006 0-9.543 1.828-12.77 5.153-3.148 3.236-4.879 7.675-4.879 12.496 0 4.82 1.692 9.278 4.752 12.476 3.246 3.383 7.705 5.172 12.897 5.172 5.583 0 11.381-2.718 14.412-6.766l-4.703-3.53c-1.946 2.601-5.935 4.41-9.709 4.41-6.111 0-10.482-3.569-11.528-9.122h28.59V35.13c0-4.683-1.653-9.015-4.664-12.202-3.139-3.324-7.539-5.153-12.398-5.153m-11.381 14.422c1.271-5.153 5.593-8.526 11.381-8.526s9.729 3.383 10.863 8.526h-22.254.01ZM159.291 94V80.91h5.012c.946 0 1.732.148 2.358.447.631.294 1.102.696 1.413 1.208.315.511.473 1.09.473 1.738 0 .533-.102.989-.307 1.368-.204.375-.479.68-.825.914-.345.235-.73.403-1.156.505v.128c.464.026.909.168 1.335.428.431.256.782.618 1.055 1.087.273.469.409 1.035.409 1.7 0 .678-.164 1.287-.492 1.828-.328.537-.822.961-1.483 1.272-.66.311-1.491.467-2.493.467h-5.299Zm2.372-1.981h2.55c.861 0 1.481-.165 1.86-.493.384-.332.575-.758.575-1.278a1.955 1.955 0 0 0-1.105-1.79c-.354-.183-.776-.275-1.266-.275h-2.614v3.835Zm0-5.542h2.346c.409 0 .777-.075 1.105-.224.328-.154.586-.369.774-.646.192-.281.287-.613.287-.997 0-.507-.179-.925-.537-1.253-.353-.328-.879-.492-1.578-.492h-2.397v3.612Zm12.181 7.721c-.622 0-1.182-.11-1.681-.332a2.747 2.747 0 0 1-1.176-.997c-.285-.44-.428-.98-.428-1.624 0-.554.102-1.012.307-1.374.204-.362.483-.652.837-.87a4.229 4.229 0 0 1 1.195-.492c.448-.115.91-.198 1.387-.25.576-.059 1.042-.112 1.4-.159.358-.051.618-.128.78-.23.166-.107.249-.27.249-.492v-.038c0-.482-.142-.855-.428-1.12-.285-.263-.697-.395-1.234-.395-.566 0-1.016.123-1.348.37-.328.248-.55.54-.665.876l-2.161-.307c.171-.596.452-1.095.844-1.495a3.674 3.674 0 0 1 1.438-.908 5.506 5.506 0 0 1 1.88-.307c.473 0 .943.055 1.412.166.469.111.897.294 1.285.55.388.251.699.594.933 1.029.239.435.358.978.358 1.63V94h-2.224v-1.349h-.077a2.844 2.844 0 0 1-.594.767 2.863 2.863 0 0 1-.953.57c-.379.14-.824.21-1.336.21Zm.601-1.7c.465 0 .867-.092 1.208-.275.341-.188.603-.435.786-.742.188-.306.282-.64.282-1.003v-1.157c-.073.06-.196.115-.371.166-.17.051-.362.096-.575.134-.213.039-.424.073-.633.103l-.543.076a4.025 4.025 0 0 0-.927.23 1.542 1.542 0 0 0-.646.448c-.158.188-.236.43-.236.729 0 .426.155.748.466.965.311.217.708.326 1.189.326Zm14.67-5.721-2.109.23a1.706 1.706 0 0 0-.314-.6 1.559 1.559 0 0 0-.588-.455c-.247-.115-.549-.172-.907-.172-.482 0-.887.104-1.215.313-.324.209-.484.48-.479.812-.005.285.1.518.313.697.217.178.575.326 1.074.44l1.674.359c.929.2 1.62.517 2.071.952.456.435.687 1.004.691 1.707a2.668 2.668 0 0 1-.544 1.636c-.353.469-.845.835-1.476 1.1-.631.264-1.355.396-2.173.396-1.202 0-2.169-.252-2.902-.754-.733-.508-1.17-1.213-1.311-2.116l2.257-.218c.102.444.319.778.652 1.004.332.226.765.339 1.297.339.55 0 .991-.113 1.323-.339.337-.226.505-.505.505-.837a.87.87 0 0 0-.326-.697c-.213-.183-.545-.324-.997-.422l-1.675-.352c-.941-.196-1.638-.526-2.09-.99-.451-.47-.675-1.061-.671-1.777-.004-.605.16-1.13.492-1.573.337-.447.804-.792 1.4-1.035.601-.247 1.294-.371 2.078-.371 1.15 0 2.056.245 2.716.735.665.49 1.076 1.153 1.234 1.988Zm6.465 7.415c-.984 0-1.834-.205-2.55-.614a4.157 4.157 0 0 1-1.643-1.751c-.383-.759-.575-1.652-.575-2.679 0-1.01.192-1.896.575-2.659a4.35 4.35 0 0 1 1.624-1.79c.694-.43 1.51-.645 2.448-.645.605 0 1.176.098 1.713.294.541.192 1.019.49 1.432.895.417.405.746.92.984 1.547.239.622.358 1.363.358 2.224v.71h-8.047v-1.56h5.829a2.492 2.492 0 0 0-.287-1.183 2.094 2.094 0 0 0-.787-.824c-.332-.2-.72-.3-1.163-.3-.473 0-.889.115-1.247.345a2.383 2.383 0 0 0-.837.895c-.196.366-.296.769-.3 1.208v1.361c0 .571.104 1.061.313 1.47.209.405.501.716.876.934.375.213.814.32 1.316.32.337 0 .642-.048.914-.141.273-.098.51-.241.71-.429.2-.187.352-.42.454-.696l2.16.243a3.36 3.36 0 0 1-.78 1.495c-.379.422-.865.75-1.457.985-.592.23-1.27.345-2.033.345Z" fill="#000"/>
    <path d="M159 74h41" stroke="#000" stroke-width="1.222" stroke-miterlimit="10"/>
  </g>
  <defs>
    <clipPath id="a">
      <path fill="#000" transform="translate(0 .127)" d="M0 0h200v99.056H0z"/>
    </clipPath>
  </defs>
</svg>
