<svg viewBox="0 0 80 20" fill="none" xmlns="http://www.w3.org/2000/svg">
  <path d="M0 0h4.56v3.027H3.025v13.947h1.533V20H0V0ZM18.84 13.418h-4.73l-1.065 3.196H9.806v-1.185L14.75 1.8h3.6l4.964 13.63v1.185h-3.43l-1.044-3.196Zm-3.707-3.047h2.684l-1.32-4.042-1.364 4.042ZM24.898 1.799h6.54c3.197 0 4.816 1.757 4.816 4.698 0 1.926-.853 3.45-2.28 4.296l2.748 4.636v1.185h-3.558l-3.068-5.418h-1.533v5.418h-3.665V1.799Zm5.923 6.392c1.086 0 1.726-.339 1.726-1.63 0-1.248-.64-1.587-1.726-1.587h-2.258v3.217h2.258ZM42.142 1.799v5.82h1.32l3.303-5.82h3.238v1.206l-3.536 5.99 3.856 6.434v1.185H46.85l-3.324-5.82h-1.384v5.82h-3.665V1.799h3.665ZM51.651 1.799h3.665v14.815h-3.665V1.799ZM56.917 3.005V1.8h3.515l3.303 9.926 3.196-9.926h3.473v1.206l-4.922 13.609H61.86L56.917 3.005ZM80 20h-4.56v-3.026h1.535V3.027h-1.534V0H80v20Z" fill="currentColor"/>
</svg>
